<?xml version="1.0" encoding="UTF-8"?>
<svg width="134px" height="34px" viewBox="0 0 134 34" version="1.1" xmlns="http://www.w3.org/2000/svg" xmlns:xlink="http://www.w3.org/1999/xlink">
    <!-- Generator: Sketch 64 (93537) - https://sketch.com -->
    <title>Group 29</title>
    <desc>Created with Sketch.</desc>
    <defs>
        <polygon id="path-1" points="0 0.9253 11.8788 0.9253 11.8788 19.7433 0 19.7433"></polygon>
        <polygon id="path-3" points="0.5052 0.5844 23.235 0.5844 23.235 12.1114 0.5052 12.1114"></polygon>
    </defs>
    <g id="Page-1" stroke="none" stroke-width="1" fill="none" fill-rule="evenodd">
        <g id="Group-29" transform="translate(0.000000, -1.000000)">
            <path d="M19.1263,15.3415 L27.1033,15.3415 C28.3063,15.3415 29.3823,15.4455 30.3343,15.6555 C31.2893,15.8645 32.0983,16.1855 32.7663,16.6145 C33.4333,17.0435 33.9473,17.6005 34.3103,18.2865 C34.6723,18.9735 34.8533,19.7835 34.8533,20.7175 C34.8533,22.3005 34.4433,23.6395 33.6243,24.7365 C32.8043,25.8315 31.7083,26.6385 30.3343,27.1525 L33.3953,34.1585 L27.0743,34.1585 L24.8453,28.0685 L22.9853,28.0685 L21.8983,34.1585 L15.8083,34.1585 L19.1263,15.3415 Z M25.9313,24.1785 C26.3123,24.1785 26.6743,24.1305 27.0183,24.0345 C27.3613,23.9415 27.6613,23.7825 27.9193,23.5635 C28.1753,23.3445 28.3763,23.0595 28.5203,22.7055 C28.6623,22.3525 28.7343,21.9185 28.7343,21.4045 C28.7343,20.8145 28.5523,20.3785 28.1913,20.1025 C27.8273,19.8265 27.3133,19.6885 26.6463,19.6885 L24.4443,19.6885 L23.6723,24.1785 L25.9313,24.1785 Z" id="Fill-1" fill="#100D08"></path>
            <polygon id="Fill-3" fill="#100D08" points="12.9588 15.3415 12.2048 19.7165 18.0378 15.3415"></polygon>
            <g id="Group-7" transform="translate(0.000000, 14.416200)">
                <mask id="mask-2" fill="white">
                    <use xlink:href="#path-1"></use>
                </mask>
                <g id="Clip-6"></g>
                <polygon id="Fill-5" fill="#100D08" mask="url(#mask-2)" points="-0.0002 5.3003 5.0618 5.3003 2.5168 19.7433 8.5598 19.7433 11.8788 0.9253 0.7728 0.9253"></polygon>
            </g>
            <polygon id="Fill-8" fill="#100D08" points="50.9583 15.3415 44.5523 15.3415 34.4283 34.1585 40.6963 34.1585 46.5303 29.7825 42.8173 29.7825 46.6683 21.5185 47.6583 28.9375 52.7563 25.1145"></polygon>
            <polygon id="Fill-10" fill="#100D08" points="52.9495 26.1608 47.8035 30.0198 48.3555 34.1588 54.4205 34.1588"></polygon>
            <path d="M71.6492,33.1286 C71.1162,33.3776 70.3432,33.6546 69.3322,33.9586 C68.3212,34.2626 67.0242,34.4156 65.4452,34.4156 C63.8622,34.4156 62.4812,34.2206 61.2992,33.8306 C60.1172,33.4386 59.1292,32.8956 58.3382,32.1986 C57.5482,31.5046 56.9562,30.6756 56.5662,29.7116 C56.1752,28.7496 55.9812,27.6956 55.9812,26.5526 C55.9812,24.8926 56.2412,23.3676 56.7662,21.9766 C57.2902,20.5846 58.0612,19.3796 59.0832,18.3596 C60.1022,17.3386 61.3642,16.5426 62.8712,15.9706 C64.3782,15.3986 66.1112,15.1126 68.0732,15.1126 C68.7972,15.1126 69.4882,15.1656 70.1482,15.2696 C70.8052,15.3736 71.4102,15.5076 71.9642,15.6706 C72.5152,15.8316 73.0162,16.0086 73.4642,16.1996 C73.9132,16.3906 74.2812,16.5626 74.5672,16.7146 L73.6222,22.0616 C72.7832,21.3956 71.8922,20.8696 70.9482,20.4896 C70.0042,20.1086 69.1042,19.9176 68.2452,19.9176 C67.4062,19.9176 66.6502,20.0596 65.9742,20.3466 C65.2972,20.6316 64.7162,21.0316 64.2302,21.5476 C63.7452,22.0616 63.3682,22.6756 63.1002,23.3906 C62.8332,24.1066 62.6992,24.8846 62.6992,25.7236 C62.6992,26.8656 63.0292,27.8046 63.6882,28.5386 C64.3432,29.2736 65.2922,29.6406 66.5302,29.6406 C67.4262,29.6406 68.3982,29.5026 69.4482,29.2256 C70.4942,28.9496 71.5442,28.4866 72.5942,27.8386 L71.6492,33.1286 Z" id="Fill-12" fill="#100D08"></path>
            <polygon id="Fill-14" fill="#100D08" points="89.0711 15.3415 88.3181 19.7165 94.1511 15.3415"></polygon>
            <polygon id="Fill-16" fill="#100D08" points="76.1131 19.7165 81.1741 19.7165 78.6291 34.1595 84.6731 34.1595 87.9901 15.3415 76.8841 15.3415"></polygon>
            <path d="M97.1268,26.323 C97.1268,25.066 97.2508,24.012 97.4978,23.163 C97.7458,22.315 98.0898,21.624 98.5298,21.089 C98.9688,20.556 99.4888,20.175 100.0908,19.946 C100.6918,19.717 101.3438,19.603 102.0518,19.603 C103.0238,19.603 103.7478,19.902 104.2268,20.503 C104.4808,20.825 104.6658,21.223 104.7838,21.693 L109.7508,17.969 C109.5478,17.715 109.3308,17.47 109.0908,17.244 C108.3648,16.567 107.4698,16.041 106.4018,15.671 C105.3318,15.299 104.1008,15.113 102.7108,15.113 C100.6668,15.113 98.8968,15.393 97.3998,15.957 C95.9028,16.52 94.6608,17.315 93.6808,18.344 C92.6968,19.375 91.9648,20.602 91.4798,22.033 C90.9908,23.465 90.7478,25.036 90.7478,26.752 C90.7478,27.839 90.9398,28.85 91.3218,29.783 C91.5288,30.292 91.7948,30.76 92.1078,31.193 L97.2108,27.367 C97.1558,27.046 97.1268,26.699 97.1268,26.323" id="Fill-18" fill="#100D08"></path>
            <path d="M110.2938,18.7526 L104.9348,22.7736 C104.9388,22.8686 104.9418,22.9626 104.9418,23.0636 C104.9418,23.9026 104.8768,24.7316 104.7548,25.5506 C104.6298,26.3696 104.3978,27.1096 104.0538,27.7666 C103.7098,28.4256 103.2338,28.9536 102.6228,29.3536 C102.0138,29.7546 101.2228,29.9556 100.2478,29.9556 C99.1598,29.9546 98.3658,29.6366 97.8678,28.9966 C97.7188,28.8046 97.5958,28.5856 97.4908,28.3476 L92.7258,31.9226 C92.8178,32.0196 92.9068,32.1196 93.0088,32.2136 C93.7528,32.9006 94.6778,33.4406 95.7818,33.8306 C96.8878,34.2206 98.1668,34.4156 99.6178,34.4156 C101.5458,34.4156 103.2398,34.1206 104.6968,33.5286 C106.1558,32.9396 107.3778,32.1226 108.3598,31.0856 C109.3428,30.0456 110.0798,28.8066 110.5768,27.3666 C111.0728,25.9266 111.3218,24.3596 111.3218,22.6616 C111.3218,21.5756 111.1298,20.5696 110.7488,19.6466 C110.6198,19.3326 110.4628,19.0376 110.2938,18.7526" id="Fill-20" fill="#100D08"></path>
            <polygon id="Fill-22" fill="#3AA935" points="116.7078 19.698 125.4628 13.135 117.8408 13.135"></polygon>
            <g id="Group-26" transform="translate(110.000000, 0.416200)">
                <mask id="mask-4" fill="white">
                    <use xlink:href="#path-3"></use>
                </mask>
                <g id="Clip-25"></g>
                <path d="M4.2752,5.2764 C2.5102,6.0614 1.3142,6.7054 0.5052,7.2144 L7.0332,12.1114 L23.2352,0.5844 L22.1162,0.7994 C18.6412,1.4754 8.0092,3.6214 4.2752,5.2764" id="Fill-24" fill="#94C01F" mask="url(#mask-4)"></path>
            </g>
            <path d="M117.8367,13.1286 L124.8417,18.3796 C124.9187,18.3386 126.6477,17.3586 128.6067,13.8966 C130.3937,10.7386 132.3947,3.9756 133.0297,1.7406 L133.2347,1.0006 L117.8367,13.1286 Z" id="Fill-27" fill="#94C01F"></path>
        </g>
    </g>
</svg>